<svg xmlns="http://www.w3.org/2000/svg" width="20" height="20" viewBox="0 0 20 20">
    <g fill="none" fill-rule="evenodd">
        <g fill="#000" fill-rule="nonzero">
            <g>
                <g>
                    <path d="M14.662 16.512c0 .334-.273.607-.608.607-.335 0-.607-.273-.607-.607 0-.335.272-.608.607-.608.335 0 .608.273.608.608zm-7.297 0c0 .334-.273.607-.608.607-.335 0-.608-.273-.608-.607 0-.335.273-.608.608-.608.335 0 .608.273.608.608zm8.737-8.758l-1.29 4.508H6.15V7.045l9.953.71zM5.135 13.476H15.27c.273 0 .51-.18.585-.44l1.622-5.667c.05-.176.018-.366-.087-.515-.104-.15-.272-.245-.454-.257l-10.787-.77v-1.66H2.5V5.38h2.433v6.901c-.91.102-1.622.866-1.622 1.8 0 .936.712 1.7 1.622 1.802v.02h.111c-.067.191-.111.393-.111.608 0 1.004.819 1.821 1.824 1.821 1.006 0 1.825-.817 1.825-1.821 0-.215-.045-.417-.113-.608h3.873c-.068.191-.112.393-.112.608 0 1.004.818 1.821 1.824 1.821 1.006 0 1.824-.817 1.824-1.821 0-.935-.712-1.7-1.621-1.801v-.021H5.135c-.334 0-.607-.272-.607-.607 0-.335.273-.607.607-.607z" transform="translate(-962 -19) translate(120 17) translate(497 2) translate(345)"/>
                </g>
            </g>
        </g>
    </g>
</svg>
