<svg xmlns="http://www.w3.org/2000/svg" width="20" height="20" viewBox="0 0 20 20">
    <g fill="none" fill-rule="evenodd">
        <g>
            <g>
                <g>
                    <g transform="translate(-773 -19) translate(120 17) translate(497 2) translate(156)">
                        <g fill="#000" fill-rule="nonzero">
                            <path d="M6.563 0c2.571 0 4.698 2.173 5.052 5h-1.108c-.334-2.075-1.89-3.66-3.783-3.746l-.162-.004H5.104C3.138 1.25 1.503 2.867 1.16 5H.052c.353-2.827 2.48-5 5.052-5h1.458z" transform="translate(4.167 1.667)"/>
                        </g>
                        <path stroke="#000" stroke-width="1.25" d="M15.417 10.833c.277 3.334-.695 5-2.917 5"/>
                        <path fill="#FFF" stroke="#000" stroke-width="1.25" d="M5.833 6.458l.209 6.042-1.875.208c-.518 0-.987-.21-1.326-.549-.34-.34-.55-.808-.55-1.326h0v-2.5c0-.517.21-.986.55-1.325.34-.34.808-.55 1.326-.55h1.666zM14.167 6.458l-.209 6.042 1.875.208c.518 0 .987-.21 1.326-.549.34-.34.55-.808.55-1.326h0v-2.5c0-.517-.21-.986-.55-1.325-.34-.34-.808-.55-1.326-.55h0-1.666z"/>
                        <rect width="4.583" height="2.083" x="8.125" y="14.792" fill="#FFF" stroke="#000" stroke-width="1.25" rx=".833"/>
                    </g>
                </g>
            </g>
        </g>
    </g>
</svg>
