<svg xmlns="http://www.w3.org/2000/svg" width="20" height="20" viewBox="0 0 20 20">
    <g fill="none" fill-rule="evenodd">
        <g fill="#000" fill-rule="nonzero">
            <g>
                <g>
                    <g>
                        <path d="M3 15.333c.143-.876.41-1.767.947-2.326.722-.746 1.83-1.252 3.553-1.258 1.765.006 2.868.514 3.578 1.253.53.556.785 1.449.922 2.331H3zM7.494 4.67c.094 0 .189.004.284.014.764.074 1.454.441 1.941 1.034.488.592.716 1.34.642 2.104-.143 1.48-1.371 2.598-2.855 2.598-.093 0-.188-.005-.283-.014-.765-.073-1.455-.44-1.942-1.034-.488-.593-.716-1.34-.643-2.104.145-1.481 1.372-2.598 2.856-2.598zm4.415 7.232c-.46-.485-1.036-.868-1.704-1.145.813-.684 1.375-1.665 1.486-2.806.224-2.314-1.47-4.373-3.785-4.597-.138-.013-.275-.02-.411-.02-2.142 0-3.974 1.629-4.185 3.804-.14 1.436.46 2.77 1.488 3.631-.655.275-1.222.654-1.679 1.13-1.001 1.04-1.454 2.455-1.452 3.935v.834h11.666v-.834c.002-1.471-.428-2.886-1.424-3.932zM15.625 6.667H16.875V12.5H15.625z" transform="translate(-895 -19) translate(120 17) translate(497 2) translate(278)"/>
                        <path d="M15.625 6.667H16.875V12.5H15.625z" transform="translate(-895 -19) translate(120 17) translate(497 2) translate(278) rotate(90 16.25 9.583)"/>
                    </g>
                </g>
            </g>
        </g>
    </g>
</svg>
