<svg width="169" height="24" fill="none" xmlns="http://www.w3.org/2000/svg"><path d="M21.878 2.438c.224-.526.442-.953.645-1.276.202-.322.412-.554.637-.704.218-.15.622-.263.9-.353V0c-.232.015-.592.022-.765.037-.173.008-.45.015-.833.015-.404 0-.847-.007-1.312-.014-.473-.015-.982-.023-1.23-.038v.113c.405.074.855.187 1.042.337.18.15.27.39.27.713 0 .292-.075.69-.232 1.185a84.67 84.67 0 01-.6 1.867l-3.135 9.068-2.67-7.373.502-1.41c.308-.848.57-1.538.803-2.063.225-.524.443-.952.645-1.274.202-.323.412-.555.637-.706.218-.15.623-.262.9-.352V0c-2.58.06-6.045.037-8.677 0v.113c.217.044.562.09.728.127.157.045.307.12.45.232.142.113.27.263.397.458.127.203.255.473.383.825l2.01 5.505-2.078 6.015L7.207 2.017c-.067-.217-.135-.412-.187-.592a1.708 1.708 0 01-.075-.48c0-.247.09-.435.262-.57.173-.128.63-.217 1.05-.263V0c-.247.015-.72.022-1.11.037-.382 0-.78.008-1.192.008h-.623c-.225 0-.45-.007-.682-.015a29.353 29.353 0 00-.773-.015C3.69.008 3.532 0 3.42 0v.113c.217.044.405.09.57.127.157.045.465.12.6.232.142.113.27.263.397.458.128.203.255.473.383.825l5.37 14.685h.127l2.88-8.13 2.97 8.13h.128L21.083 4.5c.307-.848.57-1.538.795-2.063zm-7.673 2.384l-1.012-2.804a12.668 12.668 0 01-.188-.593 1.708 1.708 0 01-.075-.48c0-.247.09-.435.263-.57.172-.128.472-.217.9-.263.405.075.704.188.884.338.18.15.27.39.27.713 0 .292-.075.69-.232 1.185-.158.494-.353 1.117-.6 1.867l-.21.607zM2.61 4.05c-.405 0-.817-.007-1.215-.015a14.866 14.866 0 01-.975-.037v.105c.203.037.383.082.555.127.165.053.315.143.435.27.128.128.218.323.285.57.067.255.105.6.105 1.035V21.15c0 .495-.022.908-.068 1.23-.044.323-.127.578-.262.78a1.261 1.261 0 01-.547.458 4.02 4.02 0 01-.923.277L.022 24c.698-.09 1.276-.262 1.718-.525a2.98 2.98 0 001.043-1.005c.247-.412.42-.885.502-1.425.09-.54.135-1.14.135-1.8V6.113c0-.435.03-.78.09-1.035.06-.248.143-.435.255-.563a.866.866 0 01.405-.262 5.39 5.39 0 01.54-.143v-.112c-.232.022-.548.03-.938.037-.397.008-.787.015-1.162.015zm59.468 2.108c-.84-.69-1.86-1.215-3.053-1.583-1.2-.367-2.55-.547-4.05-.547-.555 0-1.102.007-1.635.015-.54.007-1.148.007-1.838.007H51c-.188 0-.383-.007-.578-.015l-.562-.022c-.112-.008-.203-.008-.292-.008h-.03c-.038 0-.113.008-.113.008a8.57 8.57 0 01-.652.022c-.3.008-.638.015-1.02.015-.413 0-.758 0-1.05-.015a23.868 23.868 0 01-.81-.03v.113c.224.082.434.172.607.247.172.083.315.233.428.458.112.225.195.562.262 1.012.068.443.113 1.08.143 1.898.03.817.044 1.86.052 3.127.008 1.268.015 2.82.015 4.665v1.95l-12.405-13.8h-.15v4.853c0 1.83-.008 3.367-.015 4.62a111.76 111.76 0 01-.052 3.097c-.03.81-.068 1.44-.12 1.89-.053.45-.128.787-.24 1.02-.113.232-.248.397-.405.487-.158.09-.36.18-.593.263a3.69 3.69 0 01-.495-.105.646.646 0 01-.315-.233 1.536 1.536 0 01-.24-.472 10.5 10.5 0 01-.262-.832L27.503 3.675h-.218l-4.95 13.185c-.233.63-.435 1.125-.615 1.492a3.86 3.86 0 01-.525.855c-.172.203-.36.353-.563.45a3.055 3.055 0 01-.712.233v.113c.232-.015.45-.023.637-.038.188-.008.473-.015.856-.015.404 0 .787.008 1.14.015.352.008.652.015.9.038v-.113c-.383-.045-.645-.15-.788-.33a.954.954 0 01-.217-.637c0-.203.037-.435.104-.69.076-.256.158-.526.263-.803l1.313-3.555a29.28 29.28 0 011.147-.023h3.69l1.29 4.125c.075.226.135.428.188.616.052.195.074.367.074.524a.701.701 0 01-.21.518c-.142.135-.39.225-.757.255v.113c.247-.015.532-.03.855-.038a43.07 43.07 0 011.095-.015c.383 0 .735.008 1.065.015.33.008.608.015.848.038.232-.015.487-.03.757-.038a34.086 34.086 0 012.025 0c.292.008.563.015.81.038v-.113a6.156 6.156 0 01-.623-.255c-.164-.083-.307-.24-.427-.473-.12-.232-.203-.577-.262-1.02a18.69 18.69 0 01-.128-1.89c-.03-.81-.045-1.844-.052-3.097-.008-1.252-.008-2.79-.008-4.62V6.563l12.45 13.867h.105v-5.04c0-1.83 0-3.36.008-4.613.007-1.244.022-2.272.052-3.082s.075-1.44.143-1.89c.067-.442.15-.78.262-1.012.113-.225.248-.375.42-.45.157-.068.345-.143.57-.225.195.037.375.082.54.127.188.053.352.143.48.263.135.127.233.307.308.562.074.248.112.593.112 1.035v11.79c0 .435-.03.78-.09 1.027-.06.248-.15.436-.27.57a.971.971 0 01-.48.263 8.1 8.1 0 01-.712.128v.112c.247-.015.6-.023 1.065-.038.457-.007.892-.007 1.304-.007.323 0 .683.008 1.08.008l1.208.022 1.162.023c.375.007.706.014.998.014 1.447 0 2.708-.21 3.773-.637 1.064-.427 1.942-.997 2.64-1.71a6.887 6.887 0 001.544-2.513 9.09 9.09 0 00.503-3.037c0-1.275-.218-2.415-.668-3.427-.457-.998-1.095-1.853-1.934-2.535zm-35.626 7.064H25.41c-.345 0-.69-.007-1.043-.022l2.386-6.472 2.017 6.495h-2.317zm35.865 2.415c-.345.968-.817 1.733-1.41 2.303-.6.57-1.297.975-2.1 1.207-.81.233-1.68.353-2.617.353-.525 0-1.125-.023-1.785-.075a17.1 17.1 0 01-1.83-.233v-14.4a7.586 7.586 0 011.26-.202c.413-.03.832-.045 1.26-.045 1.08 0 2.093.135 3.038.405.937.27 1.762.705 2.452 1.305s1.245 1.373 1.642 2.318c.406.945.6 2.085.6 3.412 0 1.47-.164 2.685-.51 3.652z" fill="#000"/><path d="M73.972 18.383c-.127.292-.33.51-.622.652-.292.135-.697.218-1.215.24a87.37 87.37 0 01-2.708.038c-1.012 0-1.627-.045-1.86-.135v-7.133c1.006 0 1.14.015 1.71.03.57.023 1.005.098 1.305.218.3.127.503.322.616.585.112.262.21.63.292 1.095h.113c0-.188-.008-.36-.015-.503l-.023-.457c-.007-.158-.007-.345-.007-.54v-.735c0-.45.007-.825.007-1.11.008-.285.015-.6.03-.93h-.112c-.09.412-.188.727-.293.952-.105.225-.315.398-.615.503-.3.112-.735.18-1.305.195-.57.022-.705.037-1.71.037V4.838c.09-.015.172-.03.263-.053a1.84 1.84 0 01.33-.045c.134-.007.292-.015.494-.022.195-.008.233-.015.54-.015.803 0 1.028.015 1.538.045s.907.112 1.193.24c.284.135.48.33.577.6.105.27.15.652.15 1.132h.112a4.41 4.41 0 00.113-.885c.015-.36.022-.66.022-.907 0-.18-.007-.353-.014-.54-.008-.18-.008-.315-.008-.383a38.57 38.57 0 01-2.16.045h-3.277c-.788 0-1.403-.007-1.83-.015a13.41 13.41 0 01-.975-.037v.112c.232.045.434.09.6.128a.757.757 0 01.412.262c.105.128.188.323.233.57.044.248.067.593.067 1.035v11.79c0 .383-.015.69-.045.923-.03.232-.09.427-.188.57a.862.862 0 01-.382.33c-.157.075-.375.127-.638.18v.112c.12 0 .33-.007.645-.007.316-.008.683-.015 1.096-.023.412-.007.855-.015 1.327-.015h2.617c.346 0 1.32.008 1.628.015l.975.023c.345.007.773.015 1.282.03 0-.233.008-.435.023-.593a36.059 36.059 0 00.09-1.207c.015-.263.022-.63.022-1.095h-.105c-.082.532-.187.952-.315 1.245zm9.773-.578c-.353-.51-.683-1.05-1.005-1.62a83.585 83.585 0 01-.885-1.605c-.27-.495-.51-.93-.713-1.297-.202-.368-.367-.593-.48-.683a5.691 5.691 0 001.688-.645c.48-.285.878-.615 1.193-.99.314-.375.547-.78.704-1.215a4.388 4.388 0 00-.112-3.112 3.847 3.847 0 00-.998-1.395c-.434-.39-.982-.69-1.62-.908-.644-.217-1.38-.33-2.212-.33-.248 0-.608.008-1.073.023-.465.015-.87.022-1.207.022h-1.133c-.15 0-.307-.007-.457-.015-.15-.007-.323-.015-.517-.037v.112c.202.03.374.083.517.15a.797.797 0 01.33.338c.082.15.135.352.165.592s.045.548.045.908v11.79c0 .435-.015.78-.052 1.035-.038.247-.098.435-.188.57a.639.639 0 01-.345.27c-.142.052-.315.09-.517.12v.105a42.536 42.536 0 011.905-.045c.382 0 .735 0 1.065.015.33.007.607.015.847.03v-.105a2.644 2.644 0 01-.517-.12.666.666 0 01-.338-.27c-.09-.128-.15-.323-.188-.57a7.426 7.426 0 01-.052-1.035v-5.063h1.403c.12.105.232.24.352.42.12.18.233.36.338.563.105.195.21.39.292.57.09.18.172.33.24.45.645 1.215 1.162 2.167 1.567 2.85.405.69.773 1.2 1.103 1.545.338.345.683.562 1.043.66.36.097.824.15 1.394.165h.293c.067 0 .15-.008.255-.023v-.127c-.353-.12-.705-.368-1.065-.743-.36-.39-.72-.832-1.065-1.35zm-5.108-5.437h-1.05V4.733c.323-.09.6-.15.848-.18.24-.03.487-.045.735-.045.57 0 1.073.105 1.5.33.427.217.795.517 1.08.892.293.375.51.81.66 1.313.15.51.218 1.05.218 1.635 0 .525-.06 1.012-.18 1.462-.12.443-.33.833-.638 1.163-.308.33-.713.585-1.23.78-.502.187-1.155.285-1.942.285zm14.16-.308c-.48-.435-1.004-.84-1.575-1.193a15.13 15.13 0 01-1.575-1.132 6.094 6.094 0 01-1.207-1.328c-.322-.487-.48-1.087-.48-1.785 0-.435.075-.81.218-1.117.142-.308.344-.563.592-.765a2.44 2.44 0 01.855-.45 3.45 3.45 0 011.005-.143c.803 0 1.478.203 2.017.615.54.413.893 1.05 1.05 1.913h.128a6.58 6.58 0 01-.023-.6v-.6c0-.293.008-.548.008-.765.007-.218.022-.443.052-.683a.967.967 0 01-.187.023h-.188c-.427 0-.862-.06-1.304-.18-.443-.12-.983-.18-1.613-.18-.585 0-1.125.097-1.62.285a4.099 4.099 0 00-1.282.787c-.36.338-.638.75-.848 1.238a4.174 4.174 0 00-.307 1.612c0 .803.157 1.478.48 2.033a5.992 5.992 0 001.215 1.47c.487.435 1.02.825 1.59 1.185.57.36 1.102.742 1.59 1.14.487.405.892.862 1.215 1.372.322.51.48 1.133.48 1.868 0 .51-.083.952-.255 1.32-.173.367-.39.675-.668.922a2.574 2.574 0 01-.953.548c-.36.12-.727.18-1.102.18a4.46 4.46 0 01-1.267-.18 3.527 3.527 0 01-1.095-.525 2.798 2.798 0 01-.78-.87 2.382 2.382 0 01-.293-1.193c0-.09 0-.18.007-.262.008-.09.015-.18.03-.285h-.112a2.742 2.742 0 00-.21.705 5.103 5.103 0 000 1.463c.038.24.053.487.053.734v.315c0 .113-.008.195-.023.255a.916.916 0 01.165-.022h.165c.262 0 .51.022.735.067.225.045.457.09.69.143.233.052.487.097.765.142.278.045.6.068.96.068.645 0 1.237-.105 1.8-.308a4.252 4.252 0 001.448-.885c.412-.39.727-.855.967-1.402.233-.548.353-1.17.353-1.853 0-.832-.165-1.545-.48-2.13a5.151 5.151 0 00-1.186-1.567zm17.34-3.24a7.968 7.968 0 00-1.68-2.602 7.636 7.636 0 00-2.49-1.71 7.508 7.508 0 00-3.022-.615c-1.238 0-2.355.232-3.352.705a7.599 7.599 0 00-2.52 1.867 8.393 8.393 0 00-1.59 2.648 8.501 8.501 0 00-.016 6 7.71 7.71 0 001.553 2.565 7.935 7.935 0 002.475 1.807c.967.458 2.062.69 3.277.69 1.14 0 2.198-.21 3.165-.637a8.18 8.18 0 002.535-1.733 8.126 8.126 0 001.68-2.565c.405-.982.6-2.032.6-3.157-.007-1.17-.21-2.258-.615-3.263zm-1.875 6.705c-.315.938-.735 1.71-1.267 2.325a5.03 5.03 0 01-1.883 1.373c-.72.3-1.5.45-2.332.45-.803 0-1.553-.15-2.258-.435-.705-.293-1.312-.75-1.845-1.373-.525-.622-.937-1.41-1.245-2.37-.307-.96-.457-2.092-.457-3.412 0-1.38.165-2.55.495-3.525.33-.975.765-1.77 1.313-2.393a5.024 5.024 0 011.859-1.357 5.576 5.576 0 012.138-.428c.742 0 1.47.15 2.182.435.705.293 1.343.758 1.905 1.395.563.638 1.013 1.448 1.358 2.438.345.99.517 2.175.517 3.57-.015 1.267-.165 2.377-.48 3.307zm17.685-11.49c-.3.008-.637.015-1.019.015-.413 0-.758 0-1.051-.015a12.86 12.86 0 01-.81-.037v.105c.233.09.436.172.616.255.18.082.322.232.427.457.112.225.195.563.263 1.013.067.45.112 1.08.142 1.897.03.818.045 1.86.052 3.127.008 1.268.008 2.82.008 4.665v1.95L112.177 3.676h-.15v4.853c0 1.83-.007 3.367-.007 4.62-.008 1.252-.023 2.28-.053 3.097-.03.81-.067 1.44-.12 1.89-.052.442-.135.788-.24 1.02-.105.232-.24.397-.405.487-.157.09-.36.18-.592.263v.112c.232-.014.487-.022.757-.037a34.116 34.116 0 012.025 0c.293.008.563.015.81.037v-.112a6.188 6.188 0 01-.622-.255c-.165-.082-.308-.24-.428-.473-.12-.232-.202-.577-.262-1.02a18.81 18.81 0 01-.128-1.89c-.03-.81-.045-1.845-.052-3.097-.008-1.252-.008-2.79-.008-4.62V6.57l12.45 13.867h.113V15.39c0-1.83.008-3.36.008-4.613.007-1.244.022-2.272.052-3.082s.075-1.44.142-1.89c.068-.442.151-.78.263-1.012.113-.225.248-.375.413-.45.172-.075.375-.15.622-.24v-.098c-.255.015-.518.023-.818.03z" fill="#000"/><path d="M147.757 22.53h20.985c.008 0 .008-.008.008-.008V1.509c0-.008-.008-.008-.015-.008H147.75s-.008 0-.008.008v21.015c0 .007.008.007.015.007z" fill="red"/><path d="M163.23 11.018h1.312c.008 0 .008-.008.008-.008V4.38c0-.007-.008-.007-.008-.007h-1.312c-.008 0-.008.007-.008.007v6.623c0 .015.008.015.008.015zm-8.407-2.295c0 1.185-.893 2.22-2.078 2.295a2.21 2.21 0 01-2.34-2.213V4.38c0-.007.008-.007.008-.007h1.312c.008 0 .008.007.008.007v4.395c0 .428.292.818.712.9a.88.88 0 001.05-.87V4.38c0-.007.008-.007.008-.007h1.312c.008 0 .008.007.008.007v4.343zm6.18 10.934H156.6c-.007 0-.007-.007-.007-.007v-6.622c0-.008.007-.008.007-.008h1.305c.008 0 .008.008.008.008v5.295c0 .007.007.007.007.007h3.075c.008 0 .008.008.008.008v1.312c.007 0 0 .008 0 .008zm-.001-8.64h-1.312c-.008 0-.008 0-.008-.007l-1.747-3.758c-.008-.007-.015-.007-.015.008v3.75c0 .007-.008.007-.008.007h-1.305c-.007 0-.007-.007-.007-.007V4.387c0-.007.007-.007.007-.007h1.313c.007 0 .007 0 .007.007l1.748 3.758c.007.007.015.007.015-.008v-3.75c0-.007.007-.007.007-.007h1.313c.007 0 .007.007.007.007v6.623c-.007.007-.015.007-.015.007zm-8.392 1.995a2.218 2.218 0 00-2.212 2.22v2.213a2.21 2.21 0 002.212 2.212c.143 0 .285-.015.42-.037.008 0 .008 0 .008.008l.442 1.357c0 .007.008.008.008.008h1.312c.008 0 .008-.008.008-.016l-.653-1.95v-.007a2.2 2.2 0 00.653-1.567V15.24a2.193 2.193 0 00-2.198-2.228zm.878 4.433a.88.88 0 11-1.763 0v-2.16c0-.488.368-.922.848-.938a.884.884 0 01.915.886v2.212zm10.394-4.433a2.218 2.218 0 00-2.212 2.22v2.123c0 1.185.892 2.22 2.07 2.302a2.213 2.213 0 002.355-2.204V15.24c0-1.238-.99-2.228-2.213-2.228zm.885 4.373c0 .487-.367.922-.847.938a.886.886 0 01-.923-.886v-2.182c0-.428.285-.818.705-.9a.884.884 0 011.065.862v2.168z" fill="#fff"/></svg>