<svg xmlns="http://www.w3.org/2000/svg" width="20" height="20" viewBox="0 0 20 20">
    <g fill="none" fill-rule="evenodd">
        <g>
            <g>
                <g>
                    <g transform="translate(-834 -19) translate(120 17) translate(497 2) translate(217)">
                        <g fill="#000" fill-rule="nonzero">
                            <path d="M10 0c.46 0 .833.373.833.833V12.5c0 .46-.373.833-.833.833H.833c-.46 0-.833-.373-.833-.833v-1.667h1.25v1.25h8.333V1.25H1.25V2.5H0V.833C0 .373.373 0 .833 0H10z" transform="translate(5.833 3.333)"/>
                        </g>
                        <rect width="7.5" height="1.25" x="2.5" y="9.375" fill="#000" rx=".625"/>
                        <path stroke="#000" stroke-linecap="round" stroke-width="1.25" d="M8.333 7.5L10.833 10 8.333 12.5"/>
                    </g>
                </g>
            </g>
        </g>
    </g>
</svg>
