<svg width="172" height="16" fill="none" xmlns="http://www.w3.org/2000/svg"><path d="M1.88 2.19h4.346L7.83 8.295h.11c.077-.508.153-1.047.294-1.541L9.54 2.19h4.3l1.912 11.623H11.67l-.57-6.365h-.076c-.076.384-.155.788-.28 1.155l-1.679 5.21H6.6L5.09 8.896c-.124-.494-.232-.957-.263-1.448h-.14c-.032.463-.06.94-.108 1.403l-.494 4.964H0L1.88 2.19zm37.464 7.412l.77-3.545h.153c.076.494.77 3.545.77 3.545h-1.693zm-.757 2.76h3.192l.384 1.448h4.471L42.491 2.19H37.82l-4.04 11.623h4.471l.336-1.451zm32.619-6.997h.324c.725 0 1.358.11 1.358 1.002 0 .864-.695.971-1.389.971h-.293V5.365zm-4.133 8.448h4.133V10.08h.076l1.851 3.732h4.869l-2.53-3.777c-.23-.341-.493-.525-.707-.694V9.25c1.572-.525 2.249-1.262 2.249-3.02 0-2.93-2.218-4.039-4.838-4.039h-5.103v11.623zM99.119 2.19h4.055l3.791 6.444h.124c-.169-.971-.356-1.973-.356-2.958V2.19h4.039v11.623h-4.039l-3.717-6.105h-.124c.141.801.266 1.558.266 2.328v3.777h-4.04V2.19zm36.092 0h4.225v11.623h-4.225V2.19zM155.476 16h16.065V0h-16.065v16z" fill="#D41A1B"/><path d="M167.313 2.19h1.016v5.052h-1.016V2.19zm-6.427 3.37c0 .929-.756 1.685-1.69 1.685a1.687 1.687 0 01-1.691-1.685V2.19h1.016v3.37a.675.675 0 001.349 0V2.19h1.016v3.37zm4.733 8.253h-3.378V8.758h1.013v4.041h2.365v1.014zm0-6.568h-1.013l-1.352-2.89v2.89h-1.013V2.19h1.013l1.352 2.887V2.19h1.013v5.055zm-6.423 1.513c-.937 0-1.691.756-1.691 1.688v1.682c0 .928.756 1.685 1.691 1.685.11 0 .22-.009.327-.029l.344 1.042h1.016l-.502-1.499c.31-.307.502-.728.502-1.197v-1.682a1.685 1.685 0 00-1.687-1.69zm.674 3.37c0 .37-.299.671-.674.671a.672.672 0 01-.675-.671v-1.682a.675.675 0 011.349 0v1.682zm7.951-3.37c-.934 0-1.694.756-1.694 1.688v1.682a1.692 1.692 0 003.384 0v-1.682a1.692 1.692 0 00-1.69-1.688zm.674 3.37a.675.675 0 01-1.352 0v-1.682a.675.675 0 011.352 0v1.682z" fill="#fff"/></svg>