<svg xmlns="http://www.w3.org/2000/svg" width="24" height="24" viewBox="0 0 24 24">
    <g fill="none" fill-rule="evenodd">
        <g fill="#000" fill-rule="nonzero">
            <g>
                <g>
                    <path d="M4.57 10.59c0-3.32 2.7-6.02 6.02-6.02 3.318 0 6.018 2.7 6.018 6.02 0 3.318-2.7 6.018-6.019 6.018s-6.019-2.7-6.019-6.019zm11.908 4.777c1.061-1.305 1.7-2.968 1.7-4.778C18.178 6.404 14.774 3 10.59 3 6.404 3 3 6.404 3 10.59c0 4.184 3.404 7.588 7.59 7.588 1.81 0 3.472-.639 4.777-1.7l4.292 4.292c.154.153.354.23.555.23.202 0 .402-.077.556-.23.306-.307.306-.804 0-1.11l-4.292-4.293z" transform="translate(-1286 -27) translate(120 17) translate(1166 10)"/>
                </g>
            </g>
        </g>
    </g>
</svg>
