<svg xmlns="http://www.w3.org/2000/svg" width="20" height="20" viewBox="0 0 20 20">
    <g fill="none" fill-rule="evenodd">
        <g fill="#000" fill-rule="nonzero">
            <g>
                <g>
                    <path d="M17.725 3.333c.336 0 .608.273.608.609v12.116c0 .336-.272.609-.608.609H2.275c-.336 0-.608-.273-.608-.609V3.942c0-.336.272-.609.608-.609h15.45zM5.975 15.458l3.617-.008v-4.442H5.975v4.45zm4.433 0l3.617-.008v-4.442h-3.617v4.45zm6.667 0l.042-10.916H2.883V15.45h1.875V10.4c0-.336.273-.608.609-.608h9.266c.336 0 .609.272.609.608v5.058h1.833zm-4.042-9.9h2.442v2.425h-2.442V5.558z" transform="translate(-706 -19) translate(120 17) translate(497 2) translate(89)"/>
                </g>
            </g>
        </g>
    </g>
</svg>
